<svg width="590" height="80" viewBox="0 0 590 80" fill="none" xmlns="http://www.w3.org/2000/svg">
<mask id="mask0_534_18" style="mask-type:alpha" maskUnits="userSpaceOnUse" x="0" y="0" width="590" height="80">
<path d="M160.069 78.366H123.661V0.666H135.427V66.822H160.069V78.366Z" fill="white"/>
<path d="M210.013 78.255L234.655 0.666H249.529L274.282 78.255H261.739L255.745 59.163H228.55L222.556 78.255H210.013ZM242.203 15.318L231.658 49.062H252.637L242.203 15.318Z" fill="white"/>
<path d="M378.42 78.366H364.323L345.786 47.286H337.128V78.366H325.362L325.473 0.666H354.777C358.625 0.666 362.029 1.776 364.989 3.996C368.023 6.142 370.391 8.991 372.093 12.543C373.869 16.095 374.757 19.906 374.757 23.976C374.757 27.158 374.091 30.303 372.759 33.411C371.427 36.445 369.577 39.109 367.209 41.403C364.915 43.697 362.288 45.325 359.328 46.287L378.42 78.366ZM362.769 23.976C362.769 22.2 362.399 20.424 361.659 18.648C360.919 16.872 359.883 15.392 358.551 14.208C357.293 13.024 355.813 12.432 354.111 12.432H337.128V34.854H354C355.702 34.854 357.182 34.299 358.44 33.189C359.772 32.079 360.808 30.673 361.548 28.971C362.362 27.269 362.769 25.604 362.769 23.976Z" fill="white"/>
<path d="M474.808 78.366V71.151C472.514 73.445 469.887 75.332 466.927 76.812C464.041 78.218 460.896 78.921 457.492 78.921C451.942 78.921 446.984 77.663 442.618 75.147C438.252 72.557 434.774 69.153 432.184 64.935C429.668 60.643 428.41 55.87 428.41 50.616V0.666H440.176L440.287 50.616C440.287 53.65 441.027 56.388 442.507 58.83C444.061 61.272 446.133 63.196 448.723 64.602C451.387 66.008 454.31 66.711 457.492 66.711C460.822 66.711 463.782 66.008 466.372 64.602C468.962 63.196 470.997 61.272 472.477 58.83C474.031 56.388 474.808 53.65 474.808 50.616V0.666H486.574V48.951C486.574 49.395 486.574 49.802 486.574 50.172V78.366H474.808Z" fill="white"/>
<path d="M564.302 79.476C560.972 79.476 557.642 78.995 554.312 78.033C551.056 76.997 547.985 75.628 545.099 73.926C542.213 72.224 539.734 70.3 537.662 68.154L546.542 59.718C548.91 62.012 551.685 63.862 554.867 65.268C558.123 66.6 561.194 67.266 564.08 67.266C567.928 67.266 571.184 66.156 573.848 63.936C576.586 61.716 577.955 58.978 577.955 55.722C578.029 52.984 577.067 50.727 575.069 48.951C573.071 47.101 570.333 45.695 566.855 44.733C560.713 43.105 555.422 41.292 550.982 39.294C546.616 37.296 543.323 34.743 541.103 31.635C538.957 28.453 538.143 24.272 538.661 19.092C539.401 12.802 542.065 8.066 546.653 4.884C551.315 1.628 557.05 0 563.858 0C567.632 0 571.591 0.555002 575.735 1.665C579.953 2.775 584.06 4.588 588.056 7.104L579.731 15.984C577.437 14.874 574.995 13.912 572.405 13.098C569.815 12.284 567.188 11.877 564.524 11.877C562.23 11.803 560.01 12.062 557.864 12.654C555.792 13.172 554.09 14.097 552.758 15.429C551.426 16.687 550.723 18.389 550.649 20.535C550.575 22.903 551.167 24.753 552.425 26.085C553.683 27.417 555.422 28.527 557.642 29.415C559.936 30.229 562.563 31.08 565.523 31.968C570.703 33.374 575.106 34.965 578.732 36.741C582.358 38.517 585.096 40.885 586.946 43.845C588.87 46.805 589.832 50.764 589.832 55.722C589.832 60.162 588.685 64.195 586.391 67.821C584.097 71.373 580.989 74.222 577.067 76.368C573.219 78.44 568.964 79.476 564.302 79.476Z" fill="white"/>
<path d="M39.287 79.366C51.4049 79.366 62.4723 73.8229 69.8045 64.7399C70.8892 63.3963 69.7065 61.4333 68.0302 61.7543C48.9694 65.404 31.4654 50.7103 31.4654 31.3649C31.4654 20.2213 37.3986 9.97393 47.0417 4.45643C48.5282 3.60594 48.1543 1.34009 46.4653 1.02641C44.0975 0.587424 41.6948 0.366379 39.287 0.366018C17.601 0.366018 0 18.0347 0 39.866C0 61.6696 17.5734 79.366 39.287 79.366Z" fill="white"/>
</mask>
<g mask="url(#mask0_534_18)">
<rect x="623" y="107" width="641" height="127" transform="rotate(-180 623 107)" fill="url(#paint0_linear_534_18)"/>
</g>
<defs>
<linearGradient id="paint0_linear_534_18" x1="691.679" y1="118.906" x2="1204.58" y2="232.467" gradientUnits="userSpaceOnUse">
<stop stop-color="#2563EB"/>
<stop offset="1" stop-color="#9333EA"/>
</linearGradient>
</defs>
</svg>
